<svg width="278" height="40" viewBox="0 0 278 40" fill="none" xmlns="http://www.w3.org/2000/svg">
<g clip-path="url(#clip0_2_3)">
<path d="M21.3103 35.5486H14.183C14.183 27.7206 7.82481 21.3435 0 21.3435V14.2051C11.7506 14.2051 21.3103 23.7797 21.3103 35.5486Z" fill="white"/>
<path d="M61.1498 6.04568H65.1561L70.3697 27.004H70.5574L76.7189 6.04568H80.8325L86.9493 27.004H87.1371L92.3507 6.04568H96.357L89.3638 32.5302H85.2055L78.7489 11.0345L72.2923 32.5302H68.1787L61.1498 6.04568Z" fill="white"/>
<path d="M96.2496 22.6959C96.2496 15.6561 100.936 12.4765 105.809 12.4765C110.683 12.4765 115.405 15.6561 115.405 22.6959C115.405 29.7358 110.719 32.9154 105.809 32.9154C100.9 32.9154 96.2496 29.7358 96.2496 22.6959ZM105.809 29.7C108.984 29.7 111.774 27.5414 111.774 22.6959C111.774 17.8504 108.975 15.6919 105.809 15.6919C102.644 15.6919 99.8804 17.8504 99.8804 22.6959C99.8804 27.5414 102.635 29.7 105.809 29.7Z" fill="white"/>
<path d="M122.505 32.5302H118.687V12.8527H122.505V17.3936H122.577C123.185 15.0828 125.036 12.7004 128.622 12.7004C129.114 12.7004 129.642 12.7362 130.098 12.8885V16.1039C129.606 16.0322 129.15 15.9875 128.658 15.9875C124.991 15.9875 122.496 18.2983 122.496 22.687V32.5213L122.505 32.5302Z" fill="white"/>
<path d="M133.004 6.04568H136.822V22.7318L146.042 12.8527H150.353L142.152 21.3256L151.408 32.5213H147.142L139.773 23.7797L136.822 26.807V32.5213H133.004V6.04568Z" fill="white"/>
<path d="M151.971 22.7318C151.971 15.5038 156.282 12.4765 161.343 12.4765C166.405 12.4765 170.295 15.5396 170.295 22.4272C170.295 23.1079 170.259 23.4841 170.179 23.9051H155.638C155.942 28.0251 158.017 29.9239 161.531 29.9239C163.945 29.9239 165.797 29.0551 166.628 26.7443H170.026C168.855 31.133 165.493 32.9154 161.486 32.9154C156.201 32.9154 151.962 29.8164 151.962 22.7407L151.971 22.7318ZM166.664 21.03C166.593 17.5907 164.661 15.468 161.298 15.468C158.16 15.468 156.013 17.2862 155.665 21.03H166.655H166.664Z" fill="white"/>
<path d="M174.945 27.5414V15.8889H171.734V12.8616H174.945V7.90864H178.763V12.8616H182.653V15.8889H178.763V26.8966C178.763 28.8222 179.407 29.7 181.518 29.7C181.974 29.7 182.314 29.7 182.913 29.6283V32.5034C182.197 32.6914 181.366 32.8079 180.454 32.8079C177.163 32.8079 174.936 31.4107 174.936 27.5504L174.945 27.5414Z" fill="white"/>
<path d="M191.981 33.9364C192.392 32.8795 192.392 32.2347 192.052 31.3211L184.683 12.8527H188.609L194.243 27.8728L199.913 12.8527H203.839L195.531 33.6677C193.492 38.7371 191.069 40.4389 186.687 39.9104V36.6144C189.933 37.0712 191.221 35.7815 191.972 33.9275L191.981 33.9364Z" fill="white"/>
<path d="M204.518 27.3892C204.518 23.6005 207.273 22.0511 210.787 21.6391L215.661 21.0748C217.476 20.8509 218.075 20.5105 218.075 19.9015V19.373C218.075 16.2293 216.448 15.3963 213.693 15.3963C210.939 15.3963 209.276 16.2293 209.276 18.7282V19.185H205.609V18.3878C205.609 14.4559 208.364 12.4854 213.774 12.4854C219.184 12.4854 221.894 14.5634 221.894 19.3372V32.5392H218.308V29.3596H218.156C217.78 30.112 215.929 32.9154 211.091 32.9154C207.425 32.9154 204.518 31.2853 204.518 27.3892ZM212.039 29.9239C216.197 29.9239 218.084 27.3533 218.084 25.2306V23.0721C217.816 23.4841 217.333 23.7528 215.401 23.9767L211.699 24.4693C209.24 24.7738 208.337 25.6426 208.337 27.1921C208.337 29.0461 209.66 29.9149 212.039 29.9149V29.9239Z" fill="white"/>
<path d="M247.514 15.6919C244.76 15.6919 242.829 17.6176 242.829 21.1375V32.5302H239.01V21.1375C239.01 17.6176 237.615 15.6919 234.78 15.6919C231.945 15.6919 230.094 17.6176 230.094 21.1375V32.5302H226.276V12.8527H230.094V16.7846H230.21C230.515 15.3068 232.401 12.4675 236.291 12.4675C239.046 12.4675 241.433 13.7931 242.372 16.9369C242.829 15.3515 244.751 12.4675 248.874 12.4675C252.692 12.4675 255.563 14.6977 255.563 20.2597V32.5213H251.744V21.1285C251.744 17.6086 250.385 15.6829 247.514 15.6829V15.6919Z" fill="white"/>
<path d="M258.845 22.6959C258.845 15.6561 263.531 12.4765 268.405 12.4765C273.278 12.4765 278 15.6561 278 22.6959C278 29.7358 273.314 32.9154 268.405 32.9154C263.495 32.9154 258.845 29.7358 258.845 22.6959ZM268.405 29.7C271.579 29.7 274.369 27.5414 274.369 22.6959C274.369 17.8504 271.57 15.6919 268.405 15.6919C265.239 15.6919 262.476 17.8504 262.476 22.6959C262.476 27.5414 265.23 29.7 268.405 29.7Z" fill="white"/>
<path d="M0 21.3435V14.2051C7.81587 14.2051 14.183 7.82803 14.183 0H21.3103C21.3103 11.7689 11.7506 21.3435 0 21.3435Z" fill="white"/>
<path d="M34.7153 35.5486H41.8426C41.8426 27.7206 48.2008 21.3435 56.0257 21.3435V14.2051C44.275 14.2051 34.7153 23.7797 34.7153 35.5486Z" fill="white"/>
<path d="M56.0257 21.3435V14.2051C48.2098 14.2051 41.8426 7.83699 41.8426 0H34.7153C34.7153 11.7689 44.275 21.3435 56.0257 21.3435Z" fill="white"/>
<path d="M21.3103 35.5486H14.183L34.7243 0H41.8516L21.3103 35.5486Z" fill="white"/>
<path d="M24.4492 17.7698L34.7243 0H41.8516L31.4871 17.931" fill="white"/>
</g>
<defs>
<clipPath id="clip0_2_3">
<rect width="278" height="40" fill="white"/>
</clipPath>
</defs>
</svg>
