<svg width="48" height="48" viewBox="0 0 48 48" fill="none" xmlns="http://www.w3.org/2000/svg">
<g clip-path="url(#clip0_164_216)">
<path d="M0 4C0 1.79086 1.79086 0 4 0H25V48H4C1.79086 48 0 46.2091 0 44V4Z" fill="#303030"/>
<path d="M48 4C48 1.79086 46.2091 0 44 0H23V48H44C46.2091 48 48 46.2091 48 44V4Z" fill="#EB5E32"/>
<path d="M24.5099 0.0271611V7.9041C24.5186 7.99481 24.5146 8.0863 24.4982 8.1755C24.4937 8.20574 24.4878 8.23452 24.4806 8.26362C24.48 8.2674 24.4793 8.27114 24.4786 8.27492C24.4154 8.51455 24.264 8.72186 24.0548 8.85498L13.7052 18.1596H23.8439C23.8967 18.1483 23.9503 18.1445 24.004 18.1445C24.2907 18.1414 24.5646 18.2632 24.754 18.4787C24.7613 18.4862 24.7685 18.49 24.7755 18.4976C24.7775 18.5002 24.7794 18.5013 24.7814 18.5051C24.9701 18.7262 25.0516 19.0192 25.004 19.3059V27.8977H36.7794C36.7957 27.8947 36.8119 27.8939 36.8283 27.8901C37.3211 27.8523 37.7656 28.1857 37.8673 28.6695C37.8711 28.6884 37.8745 28.7092 37.8772 28.7262C37.8809 28.7527 37.8836 28.7822 37.8851 28.8102C37.8858 28.814 37.8864 28.8215 37.8871 28.8253C37.8885 28.8555 37.8885 28.8865 37.8871 28.9171C37.8871 28.9197 37.8871 28.9209 37.8871 28.9247C37.8742 29.235 37.7156 29.5208 37.4594 29.6961L25.5042 40.4481V47.9481C38.148 47.1542 47.9973 36.6695 48.0003 24.0008C47.9893 10.9524 37.5554 0.304314 24.5099 0.0271611Z" fill="#EB5E32"/>
<path d="M24.0015 0.000488281C23.5154 0.00336618 23.0295 0.0210407 22.5445 0.0534303V7.56704L10.6461 18.2663C10.4569 18.3644 10.3047 18.5211 10.2121 18.713C10.1195 18.9049 10.0915 19.1217 10.1324 19.3308C10.1539 19.468 10.2041 19.5991 10.2799 19.7156C10.3556 19.832 10.4551 19.9311 10.5719 20.0063C10.6886 20.0816 10.82 20.1313 10.9573 20.1522C11.0947 20.1731 11.2349 20.1647 11.3687 20.1276H23.0367V28.5729C22.9937 28.7026 22.9781 28.8398 22.9909 28.9758C23.0037 29.1118 23.0447 29.2437 23.1111 29.3631C23.1776 29.4825 23.2682 29.5867 23.3771 29.6692C23.486 29.7517 23.6108 29.8107 23.7437 29.8425C23.7573 29.8465 23.771 29.8503 23.7847 29.8538C23.9145 29.8857 24.0494 29.8908 24.1812 29.8689H34.3296L23.9234 39.2205C23.7753 39.3332 23.6622 39.4856 23.5972 39.6599C23.543 39.8017 23.5223 39.9541 23.5367 40.1053V47.9783C23.6915 47.9873 23.8465 47.9949 24.0015 48.001C24.5039 47.9991 25.0061 47.9814 25.5074 47.9481V40.4481L37.4624 29.6961C37.5888 29.6096 37.6933 29.4948 37.7675 29.3609C37.8418 29.227 37.8838 29.0777 37.8902 28.9247C37.8902 28.9222 37.8902 28.9196 37.8902 28.9171C37.8916 28.8865 37.8916 28.8559 37.8902 28.8253C37.8896 28.8202 37.8889 28.8152 37.8882 28.8102C37.8868 28.7821 37.8841 28.754 37.8803 28.7262C37.8775 28.7078 37.8742 28.6896 37.8705 28.6714C37.8705 28.6721 37.8705 28.6707 37.8705 28.6714C37.8213 28.4376 37.6887 28.2277 37.4976 28.0843C37.3064 27.9409 37.0696 27.8719 36.8314 27.8902C36.8151 27.8923 36.7988 27.8948 36.7826 27.8977H25.0072V19.306C25.0307 19.1643 25.0229 19.0193 24.9845 18.8809C24.946 18.7426 24.8778 18.6143 24.7845 18.5052C24.7825 18.5026 24.7805 18.5001 24.7785 18.4975C24.7714 18.4911 24.7642 18.4848 24.7569 18.4786C24.6633 18.3723 24.5478 18.2874 24.4184 18.2297C24.289 18.1721 24.1486 18.1431 24.0069 18.1446C23.9532 18.1453 23.8997 18.1503 23.8468 18.1597H13.7081L24.0577 8.85495C24.267 8.72185 24.4184 8.51472 24.4816 8.27489C24.4822 8.27112 24.4829 8.26737 24.4835 8.26359C24.4908 8.23465 24.4967 8.2053 24.5013 8.17582C24.5177 8.08633 24.5216 7.9951 24.513 7.90453V0.0275937C24.3425 0.0169541 24.1722 0.00748602 24.0015 0.000488281Z" fill="white"/>
<path d="M24.5097 0.0257165V7.90461C24.5184 7.99532 24.5142 8.0867 24.498 8.1759C24.4934 8.20614 24.4874 8.23457 24.4806 8.26367C24.48 8.26745 24.4793 8.2712 24.4786 8.27498C24.4154 8.5146 24.2641 8.72192 24.0548 8.85503L13.7052 18.1597H15.6759L25.1876 9.60891C25.3969 9.47587 25.5483 9.26878 25.6115 9.02885C25.6121 9.02507 25.6128 9.02133 25.6134 9.01755C25.6206 8.98731 25.6263 8.95891 25.6312 8.92943C25.6474 8.83985 25.6516 8.7507 25.6429 8.65999V0.0779664C25.2674 0.0515097 24.8898 0.0340314 24.5097 0.0257165ZM25.1366 18.8988C25.0855 18.8994 25.0347 18.9063 24.9843 18.9139C25.0149 19.0413 25.0258 19.1742 25.0039 19.3064V27.8982H26.1368V20.0603C26.1843 19.7734 26.1027 19.4806 25.9141 19.2596C25.9121 19.2571 25.9103 19.2557 25.9081 19.252C25.9009 19.2444 25.8937 19.2407 25.8865 19.2332C25.6971 19.0181 25.4234 18.8958 25.1366 18.8988ZM37.9609 28.6448C37.9446 28.647 37.9284 28.6486 37.912 28.6523H37.8593C37.8608 28.6599 37.8657 28.6637 37.8673 28.6713C37.871 28.6902 37.8744 28.711 37.8771 28.728C37.8809 28.7545 37.8835 28.784 37.885 28.812C37.8857 28.8158 37.8863 28.8233 37.887 28.8271C37.8884 28.8573 37.8884 28.8883 37.887 28.9189C37.887 28.9215 37.887 28.9227 37.887 28.9265C37.8741 29.2368 37.7155 29.5225 37.4592 29.6979L25.5042 40.4499V47.9499C25.8849 47.9272 26.2635 47.8936 26.6389 47.8524V41.2059L38.594 30.454C38.8502 30.2786 39.0087 29.9926 39.0217 29.6825C39.0217 29.68 39.0217 29.6787 39.0217 29.675C39.0231 29.6447 39.0231 29.6136 39.0217 29.583C39.0211 29.5793 39.0205 29.5717 39.0198 29.5679C39.0184 29.5415 39.0137 29.512 39.01 29.4841C39.0072 29.4652 39.0039 29.4463 39.0001 29.4293C38.8984 28.9456 38.4537 28.6071 37.9609 28.6448Z" fill="#FF924B"/>
</g>
<defs>
<clipPath id="clip0_164_216">
<rect width="48" height="48" fill="white"/>
</clipPath>
</defs>
</svg>
