<svg width="24" height="24" viewBox="0 0 24 24" fill="none" xmlns="http://www.w3.org/2000/svg">
<g clip-path="url(#clip0_164_226)">
<path d="M13.983 11.078H16.102C16.1512 11.078 16.1983 11.0585 16.2332 11.0239C16.268 10.9892 16.2878 10.9421 16.288 10.893V9.00598C16.288 8.95665 16.2684 8.90934 16.2335 8.87446C16.1987 8.83957 16.1513 8.81998 16.102 8.81998H13.983C13.934 8.81998 13.8869 8.83947 13.8522 8.87416C13.8175 8.90886 13.798 8.95591 13.798 9.00498V10.893C13.798 10.995 13.881 11.078 13.983 11.078ZM11.029 5.64798H13.147C13.1963 5.64798 13.2437 5.62838 13.2785 5.5935C13.3134 5.55862 13.333 5.51131 13.333 5.46198V3.57398C13.3328 3.52482 13.313 3.47777 13.2782 3.4431C13.2433 3.40844 13.1962 3.38898 13.147 3.38898H11.029C10.98 3.38898 10.9329 3.40847 10.8982 3.44316C10.8635 3.47786 10.844 3.52491 10.844 3.57398V5.46198C10.844 5.56398 10.926 5.64798 11.029 5.64798ZM11.029 8.36298H13.147C13.1963 8.36271 13.2434 8.34303 13.2782 8.30821C13.3131 8.27338 13.3328 8.22623 13.333 8.17698V6.28998C13.3328 6.24082 13.313 6.19377 13.2782 6.1591C13.2433 6.12444 13.1962 6.10498 13.147 6.10498H11.029C10.98 6.10498 10.9329 6.12447 10.8982 6.15916C10.8635 6.19386 10.844 6.24091 10.844 6.28998V8.17698C10.844 8.27898 10.926 8.36198 11.029 8.36298ZM8.09902 8.36298H10.219C10.268 8.36245 10.3148 8.34262 10.3492 8.3078C10.3837 8.27297 10.403 8.22596 10.403 8.17698V6.28998C10.403 6.24091 10.3835 6.19386 10.3488 6.15916C10.3141 6.12447 10.2671 6.10498 10.218 6.10498H8.10002C8.05095 6.10498 8.0039 6.12447 7.9692 6.15916C7.93451 6.19386 7.91502 6.24091 7.91502 6.28998V8.17698C7.91502 8.27898 7.99802 8.36198 8.10002 8.36298M5.13602 8.36298H7.25502C7.30417 8.36271 7.35123 8.343 7.38589 8.30815C7.42056 8.27329 7.44002 8.22613 7.44002 8.17698V6.28998C7.44002 6.24091 7.42053 6.19386 7.38583 6.15916C7.35114 6.12447 7.30408 6.10498 7.25502 6.10498H5.13602C5.08686 6.10498 5.0397 6.12444 5.00485 6.1591C4.96999 6.19377 4.95028 6.24082 4.95002 6.28998V8.17698C4.95002 8.27898 5.03402 8.36198 5.13602 8.36298ZM11.029 11.078H13.147C13.1962 11.078 13.2433 11.0585 13.2782 11.0239C13.313 10.9892 13.3328 10.9421 13.333 10.893V9.00598C13.333 8.95665 13.3134 8.90934 13.2785 8.87446C13.2437 8.83957 13.1963 8.81998 13.147 8.81998H11.029C10.98 8.81998 10.9329 8.83947 10.8982 8.87416C10.8635 8.90886 10.844 8.95591 10.844 9.00498V10.893C10.844 10.995 10.926 11.078 11.029 11.078ZM8.09902 11.078H10.219C10.2679 11.0777 10.3147 11.0581 10.3492 11.0234C10.3837 10.9888 10.403 10.9419 10.403 10.893V9.00598C10.4031 8.98168 10.3985 8.9576 10.3893 8.9351C10.3801 8.91261 10.3666 8.89214 10.3495 8.87487C10.3325 8.8576 10.3121 8.84386 10.2897 8.83444C10.2673 8.82502 10.2433 8.82011 10.219 8.81998H8.09902C8.05013 8.82024 8.00333 8.83985 7.96885 8.87451C7.93437 8.90918 7.91502 8.95608 7.91502 9.00498V10.893C7.91502 10.995 7.99802 11.078 8.10002 11.078M5.13602 11.078H7.25502C7.30408 11.078 7.35114 11.0585 7.38583 11.0238C7.42053 10.9891 7.44002 10.942 7.44002 10.893V9.00598C7.44015 8.98168 7.43549 8.9576 7.42632 8.9351C7.41714 8.91261 7.40363 8.89214 7.38654 8.87487C7.36945 8.8576 7.34913 8.84386 7.32674 8.83444C7.30434 8.82502 7.28031 8.82011 7.25602 8.81998H5.13602C5.08669 8.81998 5.03938 8.83957 5.0045 8.87446C4.96961 8.90934 4.95002 8.95665 4.95002 9.00598V10.893C4.95002 10.995 5.03402 11.078 5.13602 11.078ZM2.21602 11.078H4.33602C4.38491 11.0777 4.43171 11.0581 4.46619 11.0234C4.50066 10.9888 4.52002 10.9419 4.52002 10.893V9.00598C4.52015 8.98168 4.51549 8.9576 4.50632 8.9351C4.49714 8.91261 4.48363 8.89214 4.46654 8.87487C4.44945 8.8576 4.42913 8.84386 4.40674 8.83444C4.38434 8.82502 4.36031 8.82011 4.33602 8.81998H2.21602C2.16713 8.82024 2.12033 8.83985 2.08585 8.87451C2.05137 8.90918 2.03202 8.95608 2.03202 9.00498V10.893C2.03202 10.995 2.11302 11.078 2.21602 11.078ZM23.763 9.88998C23.698 9.83898 23.091 9.37998 21.809 9.37998C21.471 9.38098 21.133 9.40998 20.799 9.46698C20.551 7.76698 19.146 6.93698 19.083 6.90098L18.739 6.70198L18.513 7.02898C18.229 7.46698 18.023 7.95098 17.901 8.45898C17.671 9.42898 17.811 10.341 18.304 11.12C17.709 11.452 16.754 11.533 16.56 11.54H0.751017C0.552531 11.5402 0.362221 11.6191 0.221683 11.7592C0.0811454 11.8994 0.00180974 12.0895 0.00101703 12.288C-0.0175013 13.6728 0.217012 15.0494 0.693017 16.35C1.23802 17.778 2.04802 18.83 3.10302 19.474C4.28302 20.197 6.20302 20.611 8.37802 20.611C9.36102 20.614 10.341 20.525 11.308 20.345C12.6509 20.0983 13.943 19.6288 15.131 18.956C16.111 18.389 16.991 17.668 17.741 16.82C18.993 15.402 19.739 13.823 20.294 12.42H20.515C21.887 12.42 22.73 11.871 23.195 11.411C23.504 11.118 23.745 10.761 23.902 10.365L24 10.077L23.763 9.88998Z" fill="#2496ED"/>
</g>
<defs>
<clipPath id="clip0_164_226">
<rect width="24" height="24" fill="white"/>
</clipPath>
</defs>
</svg>
