<svg width="48" height="48" viewBox="0 0 48 48" fill="none" xmlns="http://www.w3.org/2000/svg">
<rect width="48" height="48" rx="4" fill="#EA4B71"/>
<path fill-rule="evenodd" clip-rule="evenodd" d="M44 18C44 20.2083 42.1633 22 39.8967 22C37.9867 22 36.38 20.725 35.9233 19H30.1967C29.1933 19 28.3383 19.7067 28.1733 20.6717L28.005 21.6583C27.8474 22.5706 27.3757 23.3989 26.6717 24C27.3583 24.59 27.845 25.4067 28.005 26.3417L28.1717 27.3283C28.2578 27.8014 28.5085 28.2287 28.8794 28.5346C29.2504 28.8406 29.7175 29.0054 30.1983 29H31.8233C32.2783 27.275 33.885 26 35.7967 26C38.0633 26 39.8983 27.7917 39.8983 30C39.8983 32.2083 38.06 34 35.7967 34C33.885 34 32.28 32.725 31.8233 31H30.1983C28.1917 31 26.4817 29.5867 26.1517 27.6583L25.9833 26.6717C25.8973 26.1992 25.6471 25.7723 25.2768 25.4665C24.9066 25.1606 24.4402 24.9954 23.96 25H22.2833C21.77 26.64 20.2067 27.8333 18.3567 27.8333C16.5067 27.8333 14.9433 26.64 14.4317 25H12.0283C11.515 26.64 9.95167 27.8333 8.10333 27.8333C5.83667 27.8333 4 26.0417 4 23.8333C4 21.625 5.83667 19.8333 8.10333 19.8333C10.075 19.8333 11.7233 21.1917 12.1167 23H14.345C14.7383 21.1917 16.3867 19.8333 18.3583 19.8333C20.3317 19.8333 21.9783 21.1917 22.3717 23H23.9583C24.96 23 25.8167 22.2933 25.98 21.3283L26.15 20.3417C26.48 18.4133 28.1917 17 30.1967 17H35.9233C36.38 15.275 37.9867 14 39.8967 14C42.1633 14 44 15.7917 44 18ZM41.95 18C41.95 19.105 41.03 20 39.8967 20C38.7633 20 37.8467 19.105 37.8467 18C37.8467 16.895 38.7633 16 39.8967 16C41.03 16 41.9483 16.895 41.9483 18H41.95ZM8.10167 25.8333C9.235 25.8333 10.1517 24.9383 10.1517 23.8333C10.1517 22.7283 9.235 21.8333 8.10167 21.8333C6.96833 21.8333 6.05 22.7283 6.05 23.8333C6.05 24.9383 6.96833 25.8333 8.10167 25.8333ZM18.3567 25.8333C19.49 25.8333 20.4083 24.9383 20.4083 23.8333C20.4083 22.7283 19.4917 21.8333 18.3583 21.8333C17.225 21.8333 16.3067 22.7283 16.3067 23.8333C16.3067 24.9383 17.2233 25.8333 18.3567 25.8333ZM35.7933 32C36.9267 32 37.8433 31.105 37.8433 30C37.8433 28.895 36.9267 28 35.7933 28C34.66 28 33.7433 28.895 33.7433 30C33.7433 31.105 34.66 32 35.7933 32Z" fill="#FEFAFB"/>
</svg>
